<?xml version="1.0" encoding="UTF-8"?><svg id="Capa_2" xmlns="http://www.w3.org/2000/svg" viewBox="0 0 429.86 126.27"><defs><style>.cls-1{fill:#000b21;}.cls-2{fill:#0353ef;}</style></defs><g id="Capa_1-2"><g><path class="cls-2" d="m295.17.26h12.5v13.26h-12.5V.26Zm81.38,9.82l-2.81,2.68c-2.38-1.36-4.74-2.55-7.08-3.57-2.34-1.02-4.61-1.57-6.82-1.66l-1.4,6.25h-12.37V0h8.93c5.19,0,9.44,1.04,12.75,3.12,3.32,2.08,6.25,4.4,8.8,6.95Z"/><g><path class="cls-1" d="m0,29.34h13.31v69.19H0V29.34Zm39.66-1.39c3.88,0,7.39.55,10.54,1.66,3.14,1.11,5.82,2.75,8.04,4.92,2.22,2.17,3.95,4.85,5.2,8.04s1.87,6.82,1.87,10.88v45.07h-13.17v-42.15c0-5.45-1.32-9.54-3.95-12.27-2.63-2.73-6.63-4.09-12-4.09-4.16,0-7.95.97-11.37,2.91-3.42,1.94-6.22,4.51-8.39,7.7-2.17,3.19-3.49,6.77-3.95,10.75l-.14-7.63c.46-3.7,1.46-7.12,2.98-10.26,1.53-3.14,3.47-5.89,5.82-8.25s5.11-4.16,8.25-5.41c3.14-1.25,6.56-1.87,10.26-1.87Zm50.75,0c3.88,0,7.39.55,10.54,1.66,3.14,1.11,5.82,2.75,8.04,4.92,2.22,2.17,3.95,4.85,5.2,8.04s1.87,6.82,1.87,10.88v45.07h-13.17v-42.15c0-5.45-1.32-9.54-3.95-12.27-2.63-2.73-6.63-4.09-11.99-4.09-4.16,0-7.95.97-11.37,2.91-3.42,1.94-6.22,4.51-8.39,7.7-2.17,3.19-3.49,6.77-3.95,10.75l-.14-7.77c.46-3.7,1.46-7.09,2.98-10.19,1.53-3.1,3.49-5.82,5.89-8.18,2.4-2.36,5.18-4.16,8.32-5.41,3.14-1.25,6.52-1.87,10.12-1.87Z"/><path class="cls-1" d="m162.1,99.92c-5.92,0-11.33-1.53-16.22-4.58-4.9-3.05-8.78-7.28-11.65-12.69-2.87-5.41-4.3-11.62-4.3-18.65s1.46-13.24,4.37-18.65c2.91-5.41,6.91-9.66,11.99-12.76,5.08-3.1,10.77-4.65,17.06-4.65,6.93,0,12.32,1.62,16.16,4.85,3.83,3.24,6.52,7.58,8.04,13.04,1.53,5.46,2.29,11.51,2.29,18.17,0,3.7-.46,7.63-1.39,11.79-.92,4.16-2.41,8.09-4.44,11.79-2.03,3.7-4.85,6.68-8.46,8.94-3.61,2.26-8.09,3.4-13.45,3.4Zm3.74-11.51c4.9,0,9.04-1.09,12.41-3.26,3.37-2.17,5.89-5.11,7.56-8.81,1.66-3.7,2.5-7.81,2.5-12.34,0-4.9-.86-9.2-2.57-12.9-1.71-3.7-4.25-6.56-7.63-8.6-3.38-2.03-7.47-3.05-12.27-3.05-7.21,0-12.78,2.31-16.71,6.93-3.93,4.62-5.89,10.49-5.89,17.61,0,4.81.97,9.04,2.91,12.69,1.94,3.65,4.6,6.52,7.97,8.6,3.37,2.08,7.28,3.12,11.72,3.12Zm22.46-59.07h13.31v69.19h-12.2c-.37-3.42-.65-6.33-.83-8.74-.19-2.4-.28-4.53-.28-6.38V29.34Z"/><path class="cls-1" d="m212.71,29.34h14.14l26.49,66.42-11.51,2.77-29.12-69.19Zm70.58,0l-41.46,96.93h-14.01l17.89-37.58,23.57-59.35h14.01Z"/><path class="cls-1" d="m347.49,65.95l.14,4.16c-.09,1.2-.39,2.98-.9,5.34-.51,2.36-1.34,4.92-2.5,7.7-1.16,2.77-2.73,5.46-4.71,8.04-1.99,2.59-4.51,4.71-7.56,6.38s-6.75,2.5-11.09,2.5c-2.96,0-5.99-.42-9.08-1.25-3.1-.83-5.94-2.22-8.53-4.16-2.59-1.94-4.67-4.6-6.24-7.97-1.57-3.37-2.36-7.6-2.36-12.69V29.34h13.31v41.88c0,4.25.67,7.58,2.01,9.98,1.34,2.41,3.26,4.11,5.75,5.13,2.5,1.02,5.31,1.53,8.46,1.53,4.81,0,8.85-1.18,12.13-3.54,3.28-2.36,5.85-5.22,7.7-8.6,1.85-3.37,3-6.63,3.47-9.78Z"/><rect class="cls-1" x="345.8" y="29.34" width="13.17" height="69.19"/><path class="cls-1" d="m374.39,76.07h12.2c.46,3.7,2.13,6.73,4.99,9.08,2.86,2.36,6.89,3.54,12.06,3.54,3.33,0,5.92-.39,7.77-1.18,1.85-.78,3.17-1.87,3.95-3.26.78-1.39,1.18-2.91,1.18-4.58,0-2.12-.55-3.77-1.66-4.92-1.11-1.15-2.68-2.12-4.71-2.91-2.03-.78-4.44-1.55-7.21-2.29-3.05-.83-6.1-1.8-9.15-2.91s-5.85-2.45-8.39-4.02c-2.54-1.57-4.58-3.54-6.1-5.89-1.53-2.36-2.29-5.25-2.29-8.67,0-2.87.62-5.55,1.87-8.04,1.25-2.5,3.05-4.65,5.41-6.45s5.11-3.19,8.25-4.16c3.14-.97,6.61-1.46,10.4-1.46,5.27,0,9.71.95,13.31,2.84,3.61,1.9,6.35,4.55,8.25,7.97,1.89,3.42,2.89,7.35,2.98,11.79h-11.65c-.65-3.88-1.99-6.72-4.02-8.53-2.03-1.8-5.08-2.7-9.15-2.7s-7.03.79-9.15,2.36c-2.13,1.57-3.19,3.7-3.19,6.38,0,2.03.74,3.67,2.22,4.92,1.48,1.25,3.47,2.34,5.96,3.26,2.5.93,5.31,1.9,8.46,2.91,2.96,1.02,5.8,2.06,8.53,3.12,2.73,1.06,5.18,2.31,7.35,3.74,2.17,1.43,3.88,3.28,5.13,5.55,1.25,2.27,1.87,5.06,1.87,8.39,0,4.07-1.02,7.61-3.05,10.61-2.03,3-4.97,5.34-8.8,7-3.84,1.66-8.48,2.5-13.94,2.5-4.99,0-9.22-.6-12.69-1.8s-6.38-2.77-8.74-4.71c-2.36-1.94-4.16-4-5.41-6.17-1.25-2.17-2.08-4.28-2.5-6.31-.42-2.03-.53-3.7-.35-4.99Z"/></g></g></g></svg>