<svg width="180" height="53" viewBox="0 0 180 53" fill="none" xmlns="http://www.w3.org/2000/svg">
<g clip-path="url(#clip0_2_794)">
<path d="M123.6 7.10913H128.834V12.6748H123.6V7.10913ZM157.677 11.2309L156.5 12.3558C155.504 11.785 154.515 11.2855 153.536 10.8574C152.556 10.4292 151.605 10.1984 150.68 10.1606L150.094 12.784H144.914V7H148.653C150.826 7 152.606 7.43652 153.992 8.30957C155.382 9.18262 156.609 10.1564 157.677 11.2267V11.2309Z" fill="#0353EF"/>
<path d="M0 19.315H5.57344V48.3565H0V19.315ZM16.6073 18.7316C18.232 18.7316 19.7018 18.9624 21.0208 19.4283C22.3356 19.8942 23.4579 20.5826 24.3875 21.4934C25.3171 22.4043 26.0415 23.5291 26.5649 24.8681C27.0884 26.2071 27.348 27.7307 27.348 29.4348V48.3523H21.8332V30.6604C21.8332 28.3729 21.2804 26.6562 20.1791 25.5103C19.0778 24.3644 17.4029 23.7936 15.1542 23.7936C13.4123 23.7936 11.8252 24.2007 10.3932 25.015C8.96106 25.8293 7.78858 26.908 6.87992 28.247C5.97125 29.5859 5.41851 31.0886 5.22589 32.7591L5.16726 29.5565C5.35989 28.0035 5.77863 26.568 6.41511 25.2501C7.05579 23.9321 7.86814 22.7778 8.85219 21.7872C9.83623 20.7967 10.992 20.0411 12.3068 19.5165C13.6216 18.9918 15.0537 18.7316 16.6031 18.7316H16.6073ZM37.8584 18.7316C39.4831 18.7316 40.9529 18.9624 42.2719 19.4283C43.5868 19.8942 44.709 20.5826 45.6386 21.4934C46.5682 22.4043 47.2926 23.5291 47.816 24.8681C48.3395 26.2071 48.5991 27.7307 48.5991 29.4348V48.3523H43.0843V30.6604C43.0843 28.3729 42.5315 26.6562 41.4302 25.5103C40.3289 24.3644 38.654 23.7936 36.4095 23.7936C34.6676 23.7936 33.0805 24.2007 31.6484 25.015C30.2164 25.8293 29.0439 26.908 28.1352 28.247C27.2265 29.5859 26.6738 31.0886 26.4812 32.7591L26.4226 29.4978C26.6152 27.9448 27.0339 26.5219 27.6704 25.2207C28.3111 23.9195 29.1318 22.7778 30.1368 21.7872C31.1418 20.7967 32.3059 20.0411 33.6207 19.5165C34.9356 18.9918 36.3509 18.7316 37.8584 18.7316Z" fill="white"/>
<path d="M67.8779 48.94C65.3989 48.94 63.1336 48.2978 61.0859 47.0176C59.0341 45.7374 57.4094 43.9619 56.2076 41.6911C55.0058 39.4204 54.407 36.8138 54.407 33.8631C54.407 30.9123 55.0183 28.3058 56.2369 26.035C57.4554 23.7642 59.1304 21.9804 61.2576 20.6792C63.3848 19.378 65.7674 18.7274 68.4013 18.7274C71.3032 18.7274 73.5602 19.4074 75.1682 20.7631C76.7719 22.1231 77.8984 23.9447 78.5348 26.2365C79.1755 28.5282 79.4938 31.0676 79.4938 33.8631C79.4938 35.4161 79.3011 37.0657 78.9117 38.8118C78.5265 40.5579 77.9025 42.2074 77.0525 43.7604C76.2025 45.3135 75.0216 46.5643 73.51 47.5129C71.9983 48.4615 70.1223 48.94 67.8779 48.94ZM69.444 44.1088C71.4958 44.1088 73.2294 43.6513 74.6406 42.7405C76.0517 41.8297 77.1069 40.5956 77.8062 39.0426C78.5013 37.4896 78.8531 35.7645 78.8531 33.8631C78.8531 31.8064 78.493 30.0015 77.7769 28.4485C77.0609 26.8955 75.9973 25.695 74.5819 24.8388C73.1666 23.9867 71.4539 23.5586 69.444 23.5586C66.4249 23.5586 64.0925 24.5282 62.4468 26.4673C60.8012 28.4065 59.9804 30.8704 59.9804 33.8589C59.9804 35.8778 60.3866 37.6533 61.199 39.1853C62.0113 40.7174 63.1252 41.922 64.5363 42.795C65.9475 43.6681 67.5848 44.1046 69.444 44.1046V44.1088ZM78.8489 19.315H84.4223V48.3565H79.3137C79.1588 46.921 79.0415 45.6996 78.9661 44.6881C78.8866 43.6807 78.8489 42.7867 78.8489 42.0101V19.315Z" fill="white"/>
<path d="M89.0703 19.3151H94.9913L106.084 47.1939L101.264 48.3566L89.0703 19.3151ZM118.625 19.3151L101.264 60H95.3975L102.889 44.2264L112.758 19.3151H118.625Z" fill="white"/>
<path d="M145.508 34.6816L145.567 36.4277C145.529 36.9314 145.404 37.6785 145.19 38.6691C144.977 39.6596 144.629 40.7342 144.143 41.901C143.657 43.0637 143 44.1928 142.171 45.2757C141.338 46.3628 140.282 47.2527 139.005 47.9536C137.728 48.6546 136.179 49.003 134.361 49.003C133.122 49.003 131.853 48.8267 130.559 48.4783C129.261 48.1299 128.072 47.5465 126.987 46.7322C125.903 45.9179 125.032 44.8014 124.374 43.3869C123.717 41.9724 123.386 40.1969 123.386 38.0605V19.3151H128.96V36.8936C128.96 38.6775 129.24 40.0752 129.801 41.0825C130.362 42.0941 131.166 42.8077 132.209 43.2358C133.256 43.6639 134.433 43.878 135.752 43.878C137.766 43.878 139.458 43.3827 140.831 42.3921C142.204 41.4015 143.281 40.2011 144.055 38.7824C144.83 37.3679 145.312 35.9996 145.508 34.6774V34.6816Z" fill="white"/>
<path d="M150.315 19.3151H144.801V48.3566H150.315V19.3151Z" fill="white"/>
<path d="M156.772 38.9292H161.881C162.074 40.4823 162.773 41.7541 163.971 42.7404C165.168 43.731 166.856 44.2263 169.021 44.2263C170.415 44.2263 171.5 44.0626 172.274 43.731C173.049 43.4036 173.602 42.9461 173.928 42.3627C174.255 41.7792 174.422 41.1412 174.422 40.4403C174.422 39.5504 174.192 38.8579 173.727 38.3752C173.262 37.8925 172.605 37.4853 171.755 37.1538C170.905 36.8264 169.896 36.5032 168.736 36.1926C167.459 35.8442 166.182 35.437 164.904 34.9711C163.627 34.5052 162.455 33.9428 161.391 33.2838C160.328 32.6248 159.473 31.7979 158.837 30.8116C158.196 29.821 157.878 28.6079 157.878 27.1724C157.878 25.9678 158.138 24.8429 158.661 23.7978C159.184 22.7484 159.938 21.846 160.926 21.0905C161.915 20.335 163.066 19.7515 164.381 19.3444C165.696 18.9372 167.149 18.7316 168.736 18.7316C170.943 18.7316 172.802 19.1303 174.309 19.9236C175.821 20.7211 176.968 21.8334 177.764 23.2689C178.555 24.7044 178.974 26.354 179.012 28.2176H174.133C173.861 26.589 173.3 25.397 172.45 24.6372C171.6 23.8817 170.323 23.504 168.619 23.504C166.914 23.504 165.675 23.8356 164.787 24.4945C163.895 25.1535 163.451 26.0476 163.451 27.1724C163.451 28.0245 163.761 28.7129 164.381 29.2375C165.001 29.7622 165.834 30.2197 166.877 30.6059C167.923 30.9962 169.1 31.4034 170.419 31.8273C171.659 32.2554 172.848 32.692 173.991 33.1369C175.134 33.5818 176.16 34.1065 177.069 34.7067C177.977 35.3069 178.694 36.0834 179.217 37.0362C179.74 37.989 180 39.1601 180 40.5578C180 42.2661 179.573 43.752 178.723 45.0112C177.873 46.2704 176.642 47.2526 175.038 47.9494C173.43 48.6461 171.487 48.9987 169.201 48.9987C167.111 48.9987 165.34 48.7469 163.887 48.2432C162.434 47.7395 161.215 47.0805 160.227 46.2662C159.239 45.4519 158.485 44.5873 157.962 43.6764C157.438 42.7656 157.091 41.88 156.915 41.0279C156.739 40.1759 156.693 39.4749 156.768 38.9334L156.772 38.9292Z" fill="white"/>
</g>
<defs>
<clipPath id="clip0_2_794">
<rect width="180" height="53" fill="white"/>
</clipPath>
</defs>
</svg>
